<svg width="128" height="128" viewBox="0 0 128 128" fill="none" xmlns="http://www.w3.org/2000/svg">
<path fill-rule="evenodd" clip-rule="evenodd" d="M64 127.75C72.3718 127.75 80.6616 126.101 88.3961 122.897C96.1306 119.694 103.158 114.998 109.078 109.078C114.998 103.158 119.694 96.1306 122.897 88.3961C126.101 80.6616 127.75 72.3718 127.75 64C127.75 55.6282 126.101 47.3384 122.897 39.6039C119.694 31.8694 114.998 24.8417 109.078 18.9219C103.158 13.0022 96.1306 8.30642 88.3961 5.10268C80.6616 1.89894 72.3718 0.25 64 0.25C47.0925 0.25 30.8774 6.9665 18.9219 18.9219C6.9665 30.8774 0.25 47.0925 0.25 64C0.25 80.9076 6.9665 97.1226 18.9219 109.078C30.8774 121.033 47.0925 127.75 64 127.75ZM55.3796 35.5958L95.3579 57.8092C96.4616 58.4228 97.3812 59.3203 98.0214 60.4088C98.6617 61.4973 98.9993 62.7372 98.9993 64C98.9993 65.2628 98.6617 66.5027 98.0214 67.5912C97.3812 68.6797 96.4616 69.5772 95.3579 70.1908L55.3796 92.4042C54.0851 93.1237 52.6251 93.4925 51.1442 93.4741C49.6633 93.4556 48.2129 93.0506 46.9367 92.2991C45.6606 91.5475 44.6029 90.4756 43.8685 89.1895C43.1342 87.9034 42.7486 86.4477 42.75 84.9667V43.0333C42.7486 41.5523 43.1342 40.0966 43.8685 38.8105C44.6029 37.5244 45.6606 36.4525 46.9367 35.7009C48.2129 34.9494 49.6633 34.5444 51.1442 34.5259C52.6251 34.5075 54.0851 34.8763 55.3796 35.5958Z" fill="black"/>
</svg>
